<svg width="54" height="54" viewBox="0 0 54 54" fill="none" xmlns="http://www.w3.org/2000/svg">
<circle cx="27" cy="27" r="26.5" stroke="#96722C"/>
<path d="M33.7719 27.1667L26.5199 34.4186C26.3901 34.5484 26.3221 34.7013 26.3159 34.8773C26.3105 35.0533 26.3816 35.2147 26.5292 35.3613C26.675 35.5035 26.8319 35.576 26.9999 35.5787C27.167 35.5804 27.3243 35.508 27.4719 35.3613L35.5785 27.2547C35.695 27.1373 35.7768 27.0182 35.8239 26.8973C35.871 26.7764 35.8945 26.644 35.8945 26.5C35.8945 26.356 35.871 26.2235 35.8239 26.1027C35.7768 25.9818 35.695 25.8631 35.5785 25.7467L27.4719 17.6387C27.3474 17.5142 27.1959 17.4475 27.0172 17.4387C26.8376 17.4298 26.6745 17.4964 26.5279 17.6387C26.3812 17.7853 26.3079 17.9435 26.3079 18.1133C26.3079 18.284 26.3812 18.4427 26.5279 18.5893L33.7732 25.8333H18.3332C18.143 25.8333 17.9843 25.8969 17.8572 26.024C17.7301 26.1511 17.6665 26.3098 17.6665 26.5C17.6665 26.6902 17.7301 26.8489 17.8572 26.976C17.9843 27.1031 18.143 27.1667 18.3332 27.1667H33.7719Z" fill="#96722C"/>
</svg>
