<svg width="32" height="32" viewBox="0 0 32 32" fill="none" xmlns="http://www.w3.org/2000/svg">
<g opacity="0.6">
<path d="M9.22814 15.3333L16.4801 8.08135C16.6099 7.95157 16.6779 7.79868 16.6841 7.62268C16.6895 7.44668 16.6184 7.28535 16.4708 7.13868C16.325 6.99646 16.1681 6.92402 16.0001 6.92135C15.833 6.91957 15.6757 6.99202 15.5281 7.13868L7.42147 15.2453C7.30502 15.3627 7.22325 15.4818 7.17614 15.6027C7.12902 15.7236 7.10547 15.856 7.10547 16C7.10547 16.144 7.12902 16.2765 7.17614 16.3973C7.22325 16.5182 7.30502 16.6369 7.42147 16.7533L15.5281 24.8613C15.6526 24.9858 15.8041 25.0525 15.9828 25.0613C16.1624 25.0702 16.3255 25.0036 16.4721 24.8613C16.6188 24.7147 16.6921 24.5565 16.6921 24.3867C16.6921 24.216 16.6188 24.0573 16.4721 23.9107L9.2268 16.6667H24.6668C24.857 16.6667 25.0157 16.6031 25.1428 16.476C25.2699 16.3489 25.3335 16.1902 25.3335 16C25.3335 15.8098 25.2699 15.6511 25.1428 15.524C25.0157 15.3969 24.857 15.3333 24.6668 15.3333H9.22814Z" fill="black"/>
</g>
</svg>
