<svg width="1921" height="877" viewBox="0 0 1921 877" fill="none" xmlns="http://www.w3.org/2000/svg">
<path d="M2013.76 847.655C2013.76 863.671 2000.77 876.655 1984.76 876.655H-19.2422C-35.2584 876.655 -48.2422 863.671 -48.2422 847.655V95.2729C-48.2422 79.2567 -35.2584 66.2729 -19.2422 66.2729H855.68C870.083 66.2729 881.355 54.0175 887.848 41.1616C891.868 33.2006 897.761 25.9667 905.189 19.8735C912.618 13.7804 921.438 8.94748 931.144 5.6499C940.849 2.35236 951.252 0.654786 961.758 0.654785C972.263 0.654785 982.666 2.35236 992.372 5.6499C1002.08 8.94748 1010.9 13.7804 1018.33 19.8735C1025.75 25.9667 1031.65 33.2006 1035.67 41.1616C1042.16 54.0175 1053.43 66.2729 1067.84 66.2729H1984.76C2000.77 66.2729 2013.76 79.2567 2013.76 95.2729V847.655Z" fill="#96722C"/>
</svg>
